<svg width="61" height="58" viewBox="0 0 61 58" fill="none" xmlns="http://www.w3.org/2000/svg">
<path d="M33.841 49.564C34.0137 49.891 33.9061 50.2957 33.5924 50.4916C33.3256 50.6582 32.9805 50.6265 32.7485 50.4142L14.9844 34.1579C11.4695 30.9413 11.2221 25.4863 14.4314 21.9648L16.4147 19.7887C18.535 17.4621 22.1404 17.296 24.4657 19.4179C25.7189 20.5615 26.3728 22.2049 26.4176 23.901C26.6552 32.8861 30.06 42.4037 33.841 49.564Z" fill="black"/>
<path d="M46.9713 24.5025C44.8042 28.2748 44.7281 35.342 45.8926 41.9523C46.4032 44.8506 44.8829 47.8207 42.0981 48.772L36.0926 50.8236C33.1455 51.8303 29.9314 50.1997 29.2846 47.1533C27.65 39.4552 27.1472 30.4971 29.1796 22.7742C29.8913 20.2325 30.8063 17.8942 32.0263 15.6575C34.541 11.4417 38.0781 8.30194 42.4418 6.43411C45.2282 5.24145 48.1295 7.28668 48.6827 10.2667L49.9468 17.0767C50.4405 19.7363 48.2442 22.1157 46.9713 24.5025Z" fill="url(#paint0_linear_24_46)"/>
<defs>
<linearGradient id="paint0_linear_24_46" x1="31.009" y1="52.4047" x2="15.7117" y2="25.3321" gradientUnits="userSpaceOnUse">
<stop offset="0.03125" stop-color="#5D84E8"/>
<stop offset="0.567708" stop-color="#07B8F8"/>
<stop offset="1" stop-color="#15E186"/>
</linearGradient>
</defs>
</svg>
